# xmcd
#
# Track frame offsets:
#	150
#	13197
#	26775
#	41194
#	55840
#	66841
#	83216
#	101353
#	118764
#	135512
#	154106
#	169266
#	187687
#	206263
#	225160
#	239820
#	252218
#	265234
#	285783
#	306498
#
# Disc length: 4353 seconds
#
# Revision: 0
# Processed by: cddbd v1.5.1PL0 Copyright (c) Steve Scherf et al.
# Submitted via: audiograbber 1.83.01
#
DISCID=0e10ff14
DTITLE=Albert Ammons - Hey! Piano Man - CD 4
DYEAR=1900
DGENRE=Boogie Woogie
TTITLE0=Nagasaki
TTITLE1=Boogie Woogie Stomp
TTITLE2=Early Mornin' Blues
TTITLE3=Mile-Or-Mo Bird Rag
TTITLE4=Shout for Joy
TTITLE5=Boogie Woogie Stomp
TTITLE6=Chicago in Mind
TTITLE7=Suitcase Blues
TTITLE8=Boogie Woogie Blues
TTITLE9=Untitled Ammons Original
TTITLE10=Bass Goin' Crazy
TTITLE11=Backwater Blues
TTITLE12=Changes in Boogie Woogie
TTITLE13=Easy Rider Blues
TTITLE14=Woo-Woo
TTITLE15=Jesse
TTITLE16=Weary Land Blues
TTITLE17=Port of Harlem Blues
TTITLE18=Mighty Blues
TTITLE19=Rocking the Blues
EXTD=
EXTT0=
EXTT1=
EXTT2=
EXTT3=
EXTT4=
EXTT5=
EXTT6=
EXTT7=
EXTT8=
EXTT9=
EXTT10=
EXTT11=
EXTT12=
EXTT13=
EXTT14=
EXTT15=
EXTT16=
EXTT17=
EXTT18=
EXTT19=
PLAYORDER=
